/* XPM */
static char * bitcoin32_xpm[] = {
"32 32 543 2",
"  	c None",
". 	c #F6D26A",
"+ 	c #F7D26A",
"@ 	c #FBD56B",
"# 	c #FBD56C",
"$ 	c #F8D16A",
"% 	c #F6D16A",
"& 	c #F8D26A",
"* 	c #FBD46A",
"= 	c #FCD56A",
"- 	c #FED66B",
"; 	c #FDD56B",
"> 	c #FBD36A",
", 	c #FBD26A",
"' 	c #FDD26B",
") 	c #FED36B",
"! 	c #FBD16B",
"~ 	c #F8CF6A",
"{ 	c #F9D46A",
"] 	c #FAD56A",
"^ 	c #FED76B",
"/ 	c #EECA67",
"( 	c #CCAF5E",
"_ 	c #A89154",
": 	c #8C7B4D",
"< 	c #7E6F49",
"[ 	c #7D6E49",
"} 	c #88774C",
"| 	c #A08A52",
"1 	c #C3A55C",
"2 	c #E7C165",
"3 	c #FCD16B",
"4 	c #F9D06A",
"5 	c #F4D068",
"6 	c #E3C164",
"7 	c #9F8B52",
"8 	c #5E5641",
"9 	c #3D3C38",
"0 	c #373737",
"a 	c #3E3D38",
"b 	c #45433A",
"c 	c #46433A",
"d 	c #403E39",
"e 	c #383837",
"f 	c #3A3937",
"g 	c #534D3E",
"h 	c #8E7B4D",
"i 	c #D6B460",
"j 	c #FBD16A",
"k 	c #F9D76B",
"l 	c #FBD76A",
"m 	c #F6D269",
"n 	c #AE9755",
"o 	c #524C3B",
"p 	c #363636",
"q 	c #534E3E",
"r 	c #89794C",
"s 	c #B79E58",
"t 	c #D1B35F",
"u 	c #DCBC62",
"v 	c #DDBC62",
"w 	c #D4B560",
"x 	c #BDA25A",
"y 	c #94814F",
"z 	c #393837",
"A 	c #47443B",
"B 	c #95814F",
"C 	c #EAC366",
"D 	c #FAD16A",
"E 	c #FDD96C",
"F 	c #EDCC67",
"G 	c #85774A",
"H 	c #353533",
"I 	c #4E493A",
"J 	c #A59053",
"K 	c #E6C465",
"L 	c #FDD66B",
"M 	c #FFD86B",
"N 	c #FED56B",
"O 	c #FFD66B",
"P 	c #EDC867",
"Q 	c #B69C58",
"R 	c #675D43",
"S 	c #6F6344",
"T 	c #CBAB5D",
"U 	c #F6CD69",
"V 	c #FBD86B",
"W 	c #786C46",
"X 	c #323232",
"Y 	c #726644",
"Z 	c #DBBC61",
"` 	c #FED86B",
" .	c #FFD96C",
"..	c #F8D269",
"+.	c #F7D169",
"@.	c #FAD26A",
"#.	c #D6B560",
"$.	c #AA9254",
"%.	c #776A46",
"&.	c #7A6B46",
"*.	c #EEC667",
"=.	c #F8D06A",
"-.	c #F3D369",
";.	c #F7D46A",
">.	c #86784A",
",.	c #807248",
"'.	c #EECD67",
").	c #FFDB6C",
"!.	c #EECC67",
"~.	c #BBA259",
"{.	c #88794C",
"].	c #6E6345",
"^.	c #6B6044",
"/.	c #7F7149",
"(.	c #BFA45A",
"_.	c #B79D58",
":.	c #9D8951",
"<.	c #756846",
"[.	c #4B4639",
"}.	c #343433",
"|.	c #2D2E31",
"1.	c #554E3C",
"2.	c #D3B15F",
"3.	c #ECC466",
"4.	c #FADA6B",
"5.	c #FEDD6C",
"6.	c #B09B56",
"7.	c #363533",
"8.	c #706644",
"9.	c #EECD68",
"0.	c #FDDA6C",
"a.	c #C4AB5C",
"b.	c #655D43",
"c.	c #4F4A3D",
"d.	c #524D3E",
"e.	c #44423A",
"f.	c #3B3A38",
"g.	c #323335",
"h.	c #2F3032",
"i.	c #474438",
"j.	c #4A4639",
"k.	c #8A784B",
"l.	c #927F4D",
"m.	c #8B794B",
"n.	c #F9CF6A",
"o.	c #E5C865",
"p.	c #544E3C",
"q.	c #4C473A",
"r.	c #DABD62",
"s.	c #FEDA6C",
"t.	c #AF9956",
"u.	c #424039",
"v.	c #42403A",
"w.	c #8B7C4D",
"x.	c #CCB15E",
"y.	c #E7C565",
"z.	c #ECC966",
"A.	c #D7B861",
"B.	c #96844F",
"C.	c #333336",
"D.	c #393937",
"E.	c #5A533F",
"F.	c #9C8750",
"G.	c #D1B25F",
"H.	c #645B40",
"I.	c #363634",
"J.	c #BEA25A",
"K.	c #3D3B35",
"L.	c #CAAA5D",
"M.	c #FFDD6C",
"N.	c #A28F52",
"O.	c #323233",
"P.	c #A08E52",
"Q.	c #FFDE6D",
"R.	c #C3AA5B",
"S.	c #403E36",
"T.	c #504B3C",
"U.	c #C3AA5C",
"V.	c #FCD86B",
"W.	c #D4B660",
"X.	c #84754B",
"Y.	c #3C3B38",
"Z.	c #695F44",
"`.	c #B29A57",
" +	c #E9C666",
".+	c #FFD86C",
"++	c #C7AA5C",
"@+	c #3A3835",
"#+	c #524B3B",
"$+	c #EAC566",
"%+	c #C2A55B",
"&+	c #393834",
"*+	c #7A6C47",
"=+	c #F8CE6A",
"-+	c #FCDC6B",
";+	c #F1D268",
">+	c #5F583F",
",+	c #4D483A",
"'+	c #E4C865",
")+	c #EFD068",
"!+	c #605940",
"~+	c #FFDA6C",
"{+	c #E9C866",
"]+	c #94834F",
"^+	c #6A6044",
"/+	c #BAA159",
"(+	c #F1CD68",
"_+	c #F9D36A",
":+	c #7F7048",
"<+	c #2C2E31",
"[+	c #766845",
"}+	c #F4CE69",
"|+	c #6B6042",
"1+	c #434037",
"2+	c #DAB761",
"3+	c #FCDD6B",
"4+	c #D0B75F",
"5+	c #3B3A35",
"6+	c #827549",
"7+	c #B7A258",
"8+	c #8D7E4C",
"9+	c #FCD96C",
"0+	c #D1B660",
"a+	c #635B42",
"b+	c #353536",
"c+	c #5D5641",
"d+	c #B49D57",
"e+	c #F2CE68",
"f+	c #FFD76B",
"g+	c #D7B760",
"h+	c #454238",
"i+	c #2E2F31",
"j+	c #A89153",
"k+	c #333333",
"l+	c #AC9355",
"m+	c #F6D06A",
"n+	c #F7DC6B",
"o+	c #FFE06D",
"p+	c #AD9A55",
"q+	c #B09C56",
"r+	c #FFDE6C",
"s+	c #817549",
"t+	c #3C3A35",
"u+	c #D0B65F",
"v+	c #FFDF6D",
"w+	c #D2B760",
"x+	c #544E3E",
"y+	c #93834F",
"z+	c #FFDA6B",
"A+	c #FDD86B",
"B+	c #FCD66A",
"C+	c #907F4D",
"D+	c #303132",
"E+	c #9F8951",
"F+	c #85744A",
"G+	c #F7D06A",
"H+	c #FFE06C",
"I+	c #92834D",
"J+	c #383734",
"K+	c #CCB45E",
"L+	c #F9D96A",
"M+	c #655D41",
"N+	c #504C3B",
"O+	c #ECCE67",
"P+	c #EBCD67",
"Q+	c #645D43",
"R+	c #AE9956",
"S+	c #FDD76A",
"T+	c #FCD66B",
"U+	c #DEBD62",
"V+	c #99854F",
"W+	c #E6C365",
"X+	c #4D493B",
"Y+	c #6C6144",
"Z+	c #FADD6B",
"`+	c #FEDE6C",
" @	c #837749",
".@	c #3D3C36",
"+@	c #D8BF62",
"@@	c #F7D76A",
"#@	c #60593F",
"$@	c #55503C",
"%@	c #EFD168",
"&@	c #9D8C52",
"*@	c #958550",
"=@	c #FCD86C",
"-@	c #FDD76B",
";@	c #93824E",
">@	c #817249",
",@	c #827349",
"'@	c #FCD56B",
")@	c #EEC967",
"!@	c #5A5340",
"~@	c #605841",
"{@	c #F1CB68",
"]@	c #FBDE6B",
"^@	c #837649",
"/@	c #3E3D36",
"(@	c #D9C062",
"_@	c #726845",
":@	c #464338",
"<@	c #CBB35E",
"[@	c #56503D",
"}@	c #57523F",
"|@	c #E7CA66",
"1@	c #FEDC6C",
"2@	c #FCD96B",
"3@	c #FDD86C",
"4@	c #FFD96B",
"5@	c #DABB61",
"6@	c #484439",
"7@	c #57513D",
"8@	c #D5B760",
"9@	c #645A40",
"0@	c #F4CE68",
"a@	c #EFCA67",
"b@	c #5C5440",
"c@	c #5F5741",
"d@	c #F1CC68",
"e@	c #FFE16C",
"f@	c #8F814D",
"g@	c #CFB75F",
"h@	c #FFE26D",
"i@	c #A19052",
"j@	c #716844",
"k@	c #393835",
"l@	c #93844F",
"m@	c #FDDC6C",
"n@	c #FDDB6C",
"o@	c #FAD66A",
"p@	c #85764A",
"q@	c #A99353",
"r@	c #F8D369",
"s@	c #665D41",
"t@	c #4F493A",
"u@	c #EAC765",
"v@	c #E8C665",
"w@	c #6A5F44",
"x@	c #F6CF69",
"y@	c #F9D26A",
"z@	c #F8DE6B",
"A@	c #FFE36D",
"B@	c #A89754",
"C@	c #B5A258",
"D@	c #DFC563",
"E@	c #4E4A3A",
"F@	c #353433",
"G@	c #FCDC6C",
"H@	c #C0A85B",
"I@	c #F7D269",
"J@	c #4E483A",
"K@	c #EAC665",
"L@	c #D7B761",
"M@	c #82734A",
"N@	c #FDE26B",
"O@	c #CBB65E",
"P@	c #897C4B",
"Q@	c #FEDF6C",
"R@	c #AF9C56",
"S@	c #3B3935",
"T@	c #B6A258",
"U@	c #FDDB6B",
"V@	c #D9BC62",
"W@	c #3F3D36",
"X@	c #C6AC5C",
"Y@	c #E7C765",
"Z@	c #4F4A3A",
"`@	c #615840",
" #	c #F3CE68",
".#	c #B19A57",
"+#	c #F6D36B",
"@#	c #FDE06C",
"##	c #EDD367",
"$#	c #58523D",
"%#	c #534E3C",
"&#	c #EACE66",
"*#	c #FFDF6C",
"=#	c #FADB6B",
"-#	c #8C7E4C",
";#	c #7C7047",
">#	c #F5D66A",
",#	c #F9D96B",
"'#	c #C2AA5B",
")#	c #373634",
"!#	c #A39052",
"~#	c #B69E57",
"{#	c #8F7E4D",
"]#	c #F9D369",
"^#	c #786B47",
"/#	c #D5B660",
"(#	c #F9DE6B",
"_#	c #FFE26C",
":#	c #97894F",
"<#	c #AC9A55",
"[#	c #E9CD66",
"}#	c #686042",
"|#	c #877A4B",
"1#	c #CFB65F",
"2#	c #D6BC61",
"3#	c #BBA55A",
"4#	c #A49153",
"5#	c #F8D56A",
"6#	c #E6C765",
"7#	c #5D563E",
"8#	c #413F37",
"9#	c #D2B55F",
"0#	c #CEB15E",
"a#	c #736846",
"b#	c #FDE16B",
"c#	c #DEC663",
"d#	c #4B473A",
"e#	c #E4CA65",
"f#	c #DDC363",
"g#	c #625B40",
"h#	c #313234",
"i#	c #393936",
"j#	c #6E6443",
"k#	c #C9B05D",
"l#	c #FCDB6C",
"m#	c #FFDC6D",
"n#	c #E8C866",
"o#	c #766A46",
"p#	c #95844E",
"q#	c #FCD76A",
"r#	c #F4D168",
"s#	c #776B47",
"t#	c #C2A75B",
"u#	c #F8D46A",
"v#	c #FADF6C",
"w#	c #FEE26C",
"x#	c #A29352",
"y#	c #807549",
"z#	c #F5D969",
"A#	c #E3C864",
"B#	c #7F7349",
"C#	c #333436",
"D#	c #615A41",
"E#	c #BBA559",
"F#	c #FBDB6B",
"G#	c #BAA459",
"H#	c #60583F",
"I#	c #7E7148",
"J#	c #F0CF68",
"K#	c #FDD96B",
"L#	c #A49053",
"M#	c #81734A",
"N#	c #F8DE6A",
"O#	c #F2D769",
"P#	c #776D46",
"Q#	c #93854E",
"R#	c #F6DA6A",
"S#	c #F7D96A",
"T#	c #AB9955",
"U#	c #4B483C",
"V#	c #706744",
"W#	c #6E6544",
"X#	c #94844E",
"Y#	c #B39D57",
"Z#	c #413F39",
"`#	c #5C5540",
" $	c #E1C163",
".$	c #E5CC65",
"+$	c #676041",
"@$	c #867A4A",
"#$	c #E9CE66",
"$$	c #FDDE6C",
"%$	c #D6BD61",
"&$	c #8D7F4C",
"*$	c #5C553E",
"=$	c #494539",
"-$	c #494639",
";$	c #5D563F",
">$	c #D1B75F",
",$	c #F4D369",
"'$	c #A28F53",
")$	c #403F39",
"!$	c #CFB35F",
"~$	c #FED96B",
"{$	c #FAD76A",
"]$	c #E3CB65",
"^$	c #726944",
"/$	c #5E583F",
"($	c #B9A559",
"_$	c #F2D569",
":$	c #FDDF6C",
"<$	c #F3D469",
"[$	c #E7C965",
"}$	c #E8CA65",
"|$	c #F5D469",
"1$	c #FEDF6D",
"2$	c #CBB25E",
"3$	c #726744",
"4$	c #363535",
"5$	c #CFB45F",
"6$	c #FEE36D",
"7$	c #EFD568",
"8$	c #998A4F",
"9$	c #434137",
"0$	c #635B40",
"a$	c #A08F51",
"b$	c #ECD067",
"c$	c #EED168",
"d$	c #E7CB66",
"e$	c #D3B960",
"f$	c #AC9855",
"g$	c #716744",
"h$	c #3C3B35",
"i$	c #3A3935",
"j$	c #82754A",
"k$	c #E2C464",
"l$	c #FBD96C",
"m$	c #F9DF6C",
"n$	c #FDE26C",
"o$	c #FCE06C",
"p$	c #D4BD60",
"q$	c #343333",
"r$	c #514D3B",
"s$	c #524E3C",
"t$	c #756A45",
"u$	c #C3AC5B",
"v$	c #F7D86A",
"w$	c #FAD86B",
"x$	c #FBE06B",
"y$	c #E2C964",
"z$	c #B7A458",
"A$	c #8E804C",
"B$	c #726844",
"C$	c #645D40",
"D$	c #6D6443",
"E$	c #86794A",
"F$	c #AC9955",
"G$	c #D8BE61",
"H$	c #F8D76A",
"I$	c #FBDF6B",
"J$	c #FBDD6B",
"K$	c #F6D86A",
"L$	c #F6D769",
"M$	c #FADA6A",
"N$	c #F8DA6B",
"O$	c #F8DE6C",
"P$	c #FADF6B",
"Q$	c #FADD6C",
"R$	c #F8DD6C",
"                          . + @ # $ %                           ",
"                    & * = - ; > , ' ) ' ! ~                     ",
"                { ] ^ / ( _ : < [ } | 1 2 3 3 4                 ",
"              5 ^ 6 7 8 9 0 a b c d e f g h i j ~ 4             ",
"          k l m n o p q r s t u v w x y 8 z A B C 3 D           ",
"        k E F G H I J K L M ^ - ; N O ; P Q R S T U 3 D         ",
"        V F W X Y Z `  .L ..+.* ^ O O O O @.#.$.%.&.*.' =.      ",
"      -.;.>.X ,.'.).!.~.{.].^./.7 s (._.:.<.[.}.|.1.2.3.4       ",
"    4.5.6.7.8.9.0.a.b.e 9 c.d.e.f.f f e g.h.i.j.h.k.l.m.n.D     ",
"    4.o.p.q.r.s.t.u.v.w.x.y.z.A.B.c C.D.E.F.G.H.I.J.&.K.L.)     ",
"  4.M.N.O.P.Q.R.S.T.U.V ).V.W.X.c Y.Z.`. +.+++@+#+$+%+&+*+=+4   ",
"  -+;+>+,+'+)+!+S.a.).~+{+]+c e ^+/+(+M L _+:+<+[+@.}+|+1+2+'   ",
"  3+4+5+6+M.7+}.8+9+s.0+a+b+c+d+e+M L = f+g+h+i+l.N O j+k+l+) m+",
"n+o+p+k+q+r+s+t+u+v+w+x+a y+{+z+A+B+; L L C+D+D+E+O - G.t+F+3 G+",
"n+H+I+J+K+L+M+N+O+P+Q+a R+V s.A+A+S+T+^ U+q.J+k+V+- ; W+X+Y+U 4 ",
"Z+`+ @.@+@@@#@$@%@&@p *@V E =@A+A+A+-@-@;@}.>@S.,@'@'@)@!@~@{@=.",
"]@`+^@/@(@-+_@:@<@[@}@|@1@2@3@E A+V.4@5@6@7@8@o 9@0@; a@b@c@d@$ ",
"n+e@f@&+g@h@i@7.j@k@l@5.m@n@E 3@E E o@p@X q@r@s@t@u@f+v@d.w@x@y@",
"z@A@B@k+C@h@D@E@X F@7+r+n@G@n@E 3@).H@5+H.!.I@s@J@K@M L@u.M@> & ",
"  N@O@&+P@`+Q@R@S@k+T@Q.U@m@-+n@).V@[@W@X@).Y@Z@`@ # ..#0 _ - +#",
"  @###$#%#&#*#=#-#h.;#>#r+M.r+,#'#[@)#!#V.).~#}.{#^ ]#^#v./#L   ",
"  (#_#:#k+<#H+*#[#}#}.|#1#2#3#;#t+S.4#5#).6#7#8#9#~+0#u.a#+.*   ",
"    b#c#d#$@e#*#*#f#g#h#d e.i#5+j#k#l#m#n#o#X p#q#r#s#Y.t#M u#  ",
"    v#w#x#k+y#z#Q@*#A#B#Y.C#D#E#;+F#P+G#H#X I#J#K#L#e M#I@T+    ",
"      N#O#P#k+Q#R#*#*#S#T#U#k@$#V#W#%#H S.X#J#0.Y#Z#`# $-@      ",
"      z@A@.$+$}.@$#$H+*#$$%$&$*$=$-$;$-#>$G@,$'$)$d.!$~${$      ",
"        (#A@]$^$X /$($_$H+h@:$<$[$}$|$1$,#2$3$4$c+5$s.V         ",
"          (#6$7$8$9$7.0$a$K+A#b$c$d$e$f$g$h$i$j$k$s.l$          ",
"            m$n$o$p$@$-$q$&+i.r$s$j.5+k+8#t$u$v$1@w$            ",
"                o$n$x$y$z$A$B$C$0$D$E$F$G$H$`+G@                ",
"                    I$w#A@w#J$K$L$M$`+o+`+-+N$                  ",
"                        O$v#P$:$:$J$Q$R$                        "};
