/* XPM */
static char * bitcoin16_xpm[] = {
"16 16 191 2",
"  	c None",
". 	c #FED86C",
"+ 	c #F7D26A",
"@ 	c #E5C264",
"# 	c #E4C065",
"$ 	c #F6CE69",
"% 	c #FDD46B",
"& 	c #DDBC62",
"* 	c #B39B57",
"= 	c #88784C",
"- 	c #7B6E49",
"; 	c #7B6D48",
"> 	c #85754B",
", 	c #AD9356",
"' 	c #D9B661",
") 	c #FDDA6C",
"! 	c #CBB05E",
"~ 	c #766A46",
"{ 	c #8D7C4D",
"] 	c #C6A95C",
"^ 	c #DEBD63",
"/ 	c #C8AB5D",
"( 	c #94814F",
"_ 	c #88774C",
": 	c #DEBA63",
"< 	c #FBD16A",
"[ 	c #CBB15E",
"} 	c #6E6443",
"| 	c #C1A75A",
"1 	c #DCBC62",
"2 	c #B69D58",
"3 	c #B39A57",
"4 	c #CBAE5E",
"5 	c #D4B460",
"6 	c #B79D58",
"7 	c #766946",
"8 	c #706344",
"9 	c #DDB962",
"0 	c #DCC063",
"a 	c #766B46",
"b 	c #BDA55A",
"c 	c #AD9856",
"d 	c #716646",
"e 	c #95834F",
"f 	c #92814F",
"g 	c #57513F",
"h 	c #45423A",
"i 	c #675D42",
"j 	c #665C41",
"k 	c #695E42",
"l 	c #8B794B",
"m 	c #D6B461",
"n 	c #B49F57",
"o 	c #8A7C4B",
"p 	c #BAA459",
"q 	c #746946",
"r 	c #E1C264",
"s 	c #D3B660",
"t 	c #83754B",
"u 	c #796C48",
"v 	c #BBA159",
"w 	c #EAC666",
"x 	c #756845",
"y 	c #A48D52",
"z 	c #98844F",
"A 	c #A38B52",
"B 	c #FDD36B",
"C 	c #FADC6B",
"D 	c #897B4B",
"E 	c #B9A359",
"F 	c #7F7348",
"G 	c #C7AE5D",
"H 	c #BAA35A",
"I 	c #6F6545",
"J 	c #B49D58",
"K 	c #F3CF68",
"L 	c #FFDA6C",
"M 	c #CDB05E",
"N 	c #434037",
"O 	c #C4A75B",
"P 	c #D1B25F",
"Q 	c #7D6D47",
"R 	c #F2CB68",
"S 	c #E5CA65",
"T 	c #7B7047",
"U 	c #C8B15D",
"V 	c #776D46",
"W 	c #BDA75A",
"X 	c #726846",
"Y 	c #D9BC62",
"Z 	c #FFDB6C",
"` 	c #FDD86B",
" .	c #FAD46A",
"..	c #86774A",
"+.	c #4C473A",
"@.	c #BEA359",
"#.	c #E8C465",
"$.	c #776A47",
"%.	c #E3BF64",
"&.	c #E6CB65",
"*.	c #D1B95F",
"=.	c #696042",
"-.	c #AD9A56",
";.	c #FFDD6D",
">.	c #FDD96C",
",.	c #C8AD5C",
"'.	c #756945",
").	c #93814E",
"!.	c #A48E52",
"~.	c #E9C666",
"{.	c #786B48",
"].	c #E3C064",
"^.	c #FADE6B",
"/.	c #877A4A",
"(.	c #C4AD5C",
"_.	c #B5A157",
":.	c #434137",
"<.	c #CEB55F",
"[.	c #FFE06D",
"}.	c #E9C966",
"|.	c #736845",
"1.	c #BFA65A",
"2.	c #A28E52",
"3.	c #D6B660",
"4.	c #7E7049",
"5.	c #F2CD68",
"6.	c #FFE46D",
"7.	c #B09E56",
"8.	c #8C7F4C",
"9.	c #F7D96A",
"0.	c #897C4B",
"a.	c #C0A95B",
"b.	c #756A45",
"c.	c #A18E52",
"d.	c #EACA67",
"e.	c #746845",
"f.	c #A08C52",
"g.	c #A18C52",
"h.	c #FDD76B",
"i.	c #DCC463",
"j.	c #746A45",
"k.	c #C8B25D",
"l.	c #F0D468",
"m.	c #877A4B",
"n.	c #4B473C",
"o.	c #635B41",
"p.	c #B39E57",
"q.	c #D6BA61",
"r.	c #827449",
"s.	c #96854F",
"t.	c #D2B55F",
"u.	c #726746",
"v.	c #D6B861",
"w.	c #C6B25D",
"x.	c #6E6543",
"y.	c #CCB45E",
"z.	c #F8D96A",
"A.	c #B19D57",
"B.	c #756A46",
"C.	c #786D46",
"D.	c #776B46",
"E.	c #A89554",
"F.	c #CCB15E",
"G.	c #746947",
"H.	c #BAA259",
"I.	c #FED96B",
"J.	c #FCE16C",
"K.	c #C5B05C",
"L.	c #726944",
"M.	c #93844E",
"N.	c #CEB55E",
"O.	c #D6BD61",
"P.	c #CBB25D",
"Q.	c #C3AB5B",
"R.	c #9B8A50",
"S.	c #716745",
"T.	c #BBA35A",
"U.	c #FBD86B",
"V.	c #DBC362",
"W.	c #A99854",
"X.	c #7F7448",
"Y.	c #7E7248",
"Z.	c #A28F52",
"`.	c #D8BD61",
" +	c #FDDC6C",
".+	c #FEE46D",
"++	c #F6DB6A",
"@+	c #E5CB65",
"#+	c #E5CA64",
"$+	c #F4D769",
"%+	c #FEDF6D",
"          . + @ # $ %           ",
"        & * = - ; > , '         ",
"    ) ! ~ { ] ^ ^ / ( _ : <     ",
"    [ } | 1 2 3 4 5 6 7 8 9 <   ",
"  0 a b c d e f g h i j k l m   ",
"  n o p q r s t u v w x y z A B ",
"C D E F G H I J K L M N O P Q R ",
"S T U V W X Y Z `  ...+.@.#.$.%.",
"&.T *.T =.-.;.>.Z ,.'.).!.~.{.].",
"^./.(._.:.<.[.;.}.|.1.2.!.3.4.5.",
"6.7.8.9.0.D 0 a.b.c.d.e.M f.g.h.",
"  i.j.k.l.m.n.o.p.q.r.s.t.u.v.  ",
"    w.x.y.z.A.B.C.D.E.F.G.H.I.  ",
"    J.K.L.M.N.O.P.Q.R.S.T.U.    ",
"        V.W.X.V V Y.Z.`. +      ",
"          .+++@+#+$+%+          "};
